# xmcd CD database file
#
# Track frame offsets:
#	150
#	12012
#	37164
#	56486
#	85507
#	109894
#	124900
#	146841
#	168405
#	187501
#	201095
#	218881
#	237524
#	255650
#	271066
#
# Disc length: 3899 seconds
#
# Revision: 0
# Processed by: cddbd v1.5.2PL0 Copyright (c) Steve Scherf et al.
# Submitted via: CDex 1.51
#
DISCID=ce0f390f
DTITLE=Various Artist - The Lupus Blues Project - Volume I
DYEAR=2006
DGENRE=Blues
TTITLE0=Why You Treat Me So Bad? - Big T and The Boys
TTITLE1=Big Daddy - Jeff Watson
TTITLE2=Bottom Line - Mr. So and So
TTITLE3=Mini Skirt Madness - James Winegan
TTITLE4=How Many More Times - Raisin' Cain
TTITLE5=Peace Of Mind - Mercy Me Band
TTITLE6=Spending Time With You - Bruce Lacy
TTITLE7=Scotch and Me - Jimmy Hill and 4/24
TTITLE8=I Just Wanna Make Love To You - FBI Band
TTITLE9=These Things - Bone Jelli
TTITLE10=Good Time Blues - Z. Isaac Band
TTITLE11=One Foot In Front Of The Other - Mick Martin and The Blues Rockers
TTITLE12=Down Home Blues - Stark Rhythm Maniacs
TTITLE13=I'm Tired - Sacramento Blues Revue
TTITLE14=Give Me One Reason - Ginny Rose and Friends
EXTD=YEAR: 2006
EXTT0=
EXTT1=
EXTT2=
EXTT3=
EXTT4=
EXTT5=
EXTT6=
EXTT7=
EXTT8=
EXTT9=
EXTT10=
EXTT11=
EXTT12=
EXTT13=
EXTT14=
PLAYORDER=
